<?xml version="1.0" encoding="UTF-8"?>
<svg width="40px" height="40px" viewBox="0 0 40 40" version="1.1" xmlns="http://www.w3.org/2000/svg" xmlns:xlink="http://www.w3.org/1999/xlink">
    <title>EFBF8F24-5EF0-4AA5-BA65-04AB0A188815</title>
    <g id="好友" stroke="none" stroke-width="1" fill="none" fill-rule="evenodd">
        <g id="朋友_KOKO-好友_邀請待回覆" transform="translate(-50.000000, -550.000000)">
            <g id="Group-14" transform="translate(50.000000, 550.000000)">
                <path d="M36.9213867,19.7887067 C35.8359201,17.04444 35.2843018,15.3217773 33.8379867,13.43404 C30.61252,17.8139067 21.5078533,19.2139067 15.6886533,19.5413733 C12.26572,19.7337733 11.6855867,21.7249733 10.6411867,26.8805733 C10.6411867,26.8805733 11.20612,24.38284 10.6031867,27.18724 C10.1478533,29.30524 9.04118667,31.4137733 6.45385333,32.54564 L4.90918667,33.12044 C8.57572,37.33444 13.9755867,40.00004 20.00012,40.00004 C27.8270533,40.00004 34.6026533,35.50324 37.8875867,28.95284 C38.8670533,26.9997733 39.5367867,24.8643067 39.83092,22.61084 C39.8922533,22.1411067 39.9355867,21.66564 39.96372,21.18604 C39.9866533,20.7935067 40.00012,20.3983067 40.00012,20.00004 C40.00012,19.9293733 39.99812,19.85924 39.99732,19.7887067 C38.42452,16.79724 37.8875867,18.5361328 36.9213867,19.7887067 Z" id="Fill-1" fill="#F8F8F8"></path>
                <path d="M5.33333333e-05,20.0000267 C5.33333333e-05,20.86856 0.0585866667,21.7230933 0.166053333,22.5622933 C0.563253333,25.6632267 1.66752,28.5426933 3.31645333,31.0314933 C3.80152,31.7634933 4.33485333,32.4602933 4.90912,33.1204267 C5.35502161,33.6193659 5.73147583,34.0168457 6.03848267,34.3128662 C6.3454895,34.6088867 6.66983032,34.9049581 7.01150513,35.2010803 C8.74829102,32.6044922 9.06628418,32.0369873 10.6328125,29.7016602 C12.6070557,26.3956625 13.9550781,24.0665519 16.2109375,23.5199202 C21.8329505,22.1576143 30.6125867,17.8138933 33.83792,13.4340267 C34.96875,16.5649414 35.58432,17.5824267 36.6696533,20.3266933 C36.6696533,20.3266933 38.4245867,16.7972267 39.9972533,19.7886933 C39.88392,8.84056 30.97512,2.66666667e-05 20.0000533,2.66666667e-05 C8.95432,2.66666667e-05 5.33333333e-05,8.95429333 5.33333333e-05,20.0000267 Z" id="Fill-4" fill="#474747"></path>
                <g id="Group-2" transform="translate(25.196322, 28.159001) rotate(-15.000000) translate(-25.196322, -28.159001) translate(16.196322, 23.159001)" fill="#474747">
                    <path d="M6.49724889,9.62112126 C6.84538222,9.49392126 7.01578222,9.11045459 6.87831556,8.76325459 C6.74084889,8.41672126 6.34711556,8.23832126 5.99911556,8.36472126 C4.50364889,8.90992126 2.78791556,8.24485459 2.00524889,6.81858793 L1.94204889,6.71245459 C1.76098222,6.38485459 1.34991556,6.25498793 1.02191556,6.42498793 C0.69404889,6.59432126 0.573915557,6.99832126 0.754315557,7.32618793 L1.03018222,7.82858793 C1.56791556,8.54818793 1.80578222,8.76672126 2.48658222,9.18618793 C3.66938222,9.91472126 5.14618222,10.1136546 6.49724889,9.62112126 Z" id="Fill-6"></path>
                    <path d="M13.7324463,4.99005048 C14.2339129,4.98031715 14.6181796,4.68898382 14.5153796,4.19818382 L14.1699515,1.46215156 C14.1119515,1.02095156 13.8812849,0.774951556 13.3751515,0.857618223 C12.9231515,0.931484889 12.7379515,1.37068489 12.8380849,1.80135156 L13.0991129,3.66085048 L12.5021796,3.67325048 C12.0509796,3.68525048 11.7407129,3.86418382 11.7407129,4.30765048 C11.7415129,4.75085048 12.0996463,4.99231715 12.5527129,4.98285048 L13.7324463,4.99005048 Z" id="Fill-8" transform="translate(13.136414, 2.915899) rotate(-7.000000) translate(-13.136414, -2.915899) "></path>
                    <path d="M16.5823575,2.13534556 C15.9976908,2.0270789 15.6114242,1.4654789 15.7195575,0.880812229 C15.8278242,0.296278895 16.3894242,-0.0899877714 16.9739575,0.018145562 C17.5586242,0.126278895 17.9448908,0.687878895 17.8367575,1.27254556 C17.7284908,1.85721223 17.1670242,2.2434789 16.5823575,2.13534556 Z" id="Fill-10"></path>
                    <path d="M5.71086848,3.13852036 C5.12620182,3.03025369 4.74006848,2.46865369 4.84806848,1.88398702 C4.95633515,1.29945369 5.51793515,0.913187024 6.10246848,1.02145369 C6.68713515,1.12945369 7.07353515,1.69105369 6.96526848,2.27572036 C6.85700182,2.86038702 6.29553515,3.24665369 5.71086848,3.13852036 Z" id="Fill-12"></path>
                </g>
                <path d="M7.01150513,35.2010803 C8.09913127,28.8006996 11.1656087,24.9069796 16.2109375,23.5199202 C21.2562663,22.1328608 20.4406738,24.5871582 13.7641602,30.8828125 L7.01150513,35.2010803 Z" id="Path-2" fill="#F8F8F8"></path>
            </g>
        </g>
    </g>
</svg>