<?xml version="1.0" encoding="UTF-8"?>
<svg width="30px" height="30px" viewBox="0 0 30 30" version="1.1" xmlns="http://www.w3.org/2000/svg" xmlns:xlink="http://www.w3.org/1999/xlink">
    <title>4A67828F-B003-4C04-9C72-5C238BBEA1E4</title>
    <g id="好友" stroke="none" stroke-width="1" fill="none" fill-rule="evenodd">
        <g id="朋友_KOKO-好友_邀請展開" transform="translate(-300.000000, -189.000000)">
            <g id="btn_friends_delet" transform="translate(300.000000, 189.000000)">
                <circle id="Oval-2" stroke="#C9C9C9" stroke-width="1.2" cx="15" cy="15" r="14.4"></circle>
                <path d="M15.7602246,14.9757292 L19.7889074,10.9470463 C20.0055495,10.7305429 20.0055495,10.379089 19.7889074,10.1625856 C19.5721267,9.9458048 19.2209501,9.9458048 19.004308,10.1625856 L14.9757638,14.1911298 L10.947081,10.1625856 C10.7303002,9.9458048 10.3791236,9.9458048 10.1624816,10.1625856 C9.94583948,10.379089 9.94583948,10.7305429 10.1624816,10.9470463 L14.1911644,14.9757292 L10.1624816,19.004412 C9.94583948,19.2209154 9.94583948,19.5723694 10.1624816,19.7888728 C10.2708026,19.8971938 10.4126879,19.9514237 10.5548506,19.9514237 C10.6967359,19.9514237 10.8387599,19.8971938 10.947081,19.7888728 L14.9757638,15.7603286 L19.004308,19.7888728 C19.1126291,19.8971938 19.2545144,19.9514237 19.3966771,19.9514237 C19.5385624,19.9514237 19.6805864,19.8971938 19.7889074,19.7888728 C20.0055495,19.5723694 20.0055495,19.2209154 19.7889074,19.004412 L15.7602246,14.9757292 Z" id="Fill-1" stroke="#979797" stroke-width="0.6" fill="#999999"></path>
            </g>
        </g>
    </g>
</svg>