<?xml version="1.0" encoding="UTF-8"?>
<svg width="14px" height="14px" viewBox="0 0 14 14" version="1.1" xmlns="http://www.w3.org/2000/svg" xmlns:xlink="http://www.w3.org/1999/xlink">
    <title>D21F6175-BD7F-426A-ACAE-DF20F360C3FC</title>
    <g id="好友" stroke="none" stroke-width="1" fill="none" fill-rule="evenodd">
        <g id="朋友_KOKO-好友_邀請展開" transform="translate(-30.000000, -513.000000)">
            <rect fill="#FFFFFF" x="0" y="0" width="375" height="667"></rect>
            <g id="Friends/list/liked" transform="translate(20.000000, 490.000000)" fill="#F4B400">
                <g id="Group" transform="translate(9.999976, 10.000000)">
                    <g id="Group-2" transform="translate(0.000000, 13.000000)">
                        <path d="M6.26073144,0.947012954 C6.39969281,0.674310079 6.68700832,0.50124864 6.99992874,0.5 C7.3142645,0.50124864 7.60067933,0.674310079 7.74041271,0.947012954 L9.26409841,3.94462189 C9.38530361,4.18086449 9.61587655,4.34443627 9.88530721,4.38264464 L13.2939782,4.86312113 C13.6044539,4.90782243 13.8621758,5.11846792 13.9599634,5.40790256 C14.0564644,5.69733721 13.9752749,6.01599002 13.7513927,6.22788415 L11.284185,8.56121685 C11.0905398,8.74564091 11.0008582,9.01060222 11.0475647,9.27019438 L11.6299158,12.5648547 C11.6821549,12.8645282 11.555417,13.1688216 11.3027132,13.3472522 C11.046278,13.5256828 10.711098,13.5501561 10.4331753,13.4081858 L7.3849032,11.8528804 C7.14326482,11.7295148 6.85787933,11.7306386 6.61624095,11.8528804 L3.56732553,13.4081858 C3.28940279,13.5501561 2.95293614,13.5256828 2.69830229,13.3472522 C2.44559847,13.1676978 2.31834588,12.8645282 2.3712284,12.5648547 L2.95293614,9.26957006 C3.00028594,9.01060222 2.90996105,8.74564091 2.71618714,8.56121685 L0.248979458,6.22788415 C0.0239392375,6.01599002 -0.0566068906,5.69796153 0.0405374013,5.40790256 C0.137810361,5.11846792 0.395918241,4.90782243 0.706522639,4.86312113 L4.11519361,4.38264464 C4.3844956,4.34443627 4.61506854,4.18086449 4.73563039,3.94462189 L6.26073144,0.947012954 Z" id="Fill-1"></path>
                    </g>
                </g>
            </g>
        </g>
    </g>
</svg>