<?xml version="1.0" encoding="UTF-8"?>
<svg width="30px" height="30px" viewBox="0 0 30 30" version="1.1" xmlns="http://www.w3.org/2000/svg" xmlns:xlink="http://www.w3.org/1999/xlink">
    <title>C301FBC1-B091-4097-9EB0-B720A22EC205</title>
    <g id="好友" stroke="none" stroke-width="1" fill="none" fill-rule="evenodd">
        <g id="朋友_KOKO-好友_邀請展開" transform="translate(-255.000000, -189.000000)" stroke="#EC008C">
            <g id="btn_friends_agree" transform="translate(255.000000, 189.000000)">
                <circle id="Oval" stroke-width="1.2" cx="15" cy="15" r="14.4"></circle>
                <path d="M13.0514609,21.05325 C12.9041218,21.05325 12.7624871,20.9948152 12.6578611,20.8900501 L8.76290687,16.9924524 C8.54558526,16.7748525 8.54572439,16.4224353 8.76318513,16.2052528 C8.98036761,15.9880703 9.3327848,15.9882095 9.55010641,16.2055311 L13.0054087,19.6633378 L20.4089522,10.408804 C20.6006738,10.1689433 20.9507258,10.1298477 21.1911431,10.3219867 C21.4311429,10.5139866 21.4700994,10.8641777 21.2779604,11.1041776 L13.485965,20.8444153 C13.3870433,20.9679631 13.2401216,21.04365 13.0822087,21.0524152 C13.0717739,21.0529717 13.0616174,21.05325 13.0514609,21.05325" id="Fill-1" stroke-width="0.6" fill="#EC008C"></path>
            </g>
        </g>
    </g>
</svg>